<?xml version="1.0" encoding="utf-8"?>
<!-- Generator: Adobe Illustrator 25.1.0, SVG Export Plug-In . SVG Version: 6.00 Build 0)  -->
<svg version="1.1" id="Layer_1" xmlns="http://www.w3.org/2000/svg" xmlns:xlink="http://www.w3.org/1999/xlink" x="0px" y="0px"
	 viewBox="0 0 417 418" style="enable-background:new 0 0 417 418;" xml:space="preserve">
<style type="text/css">
	.st0{fill:#FFFFFF;}
</style>
<g transform="translate(0.000000,418.000000) scale(0.100000,-0.100000)">
	<path class="st0" d="M2046,4149l-26-20v-405c0-391,1-405,20-424c11-11,33-20,50-20s39,9,50,20c19,19,20,33,20,424v405l-26,20
		c-15,12-34,21-44,21S2061,4161,2046,4149z"/>
	<path class="st0" d="M620,3570c-12-12-20-33-20-52c0-29,29-62,283-315c307-307,311-310,362-258c52,51,49,55-258,362
		c-253,254-286,283-315,283C653,3590,632,3582,620,3570z"/>
	<path class="st0" d="M3455,3561c-16-10-148-138-292-283c-229-230-263-269-263-295c0-44,30-76,69-76c30,0,61,28,317,284
		c301,302,307,310,267,357C3527,3579,3490,3584,3455,3561z"/>
	<path class="st0" d="M1915,2943c-420-90-714-468-692-893c10-192,73-358,190-504c157-195,381-310,629-323c279-15,536,95,711,303
		c435,516,148,1306-517,1423C2153,2964,1998,2961,1915,2943z M2265,2754c188-48,360-190,444-367c47-99,65-180,65-297s-18-198-65-297
		c-85-179-253-317-449-369c-87-23-253-23-340,0c-182,49-359,193-438,356c-57,117-73,185-73,310s16,193,73,310
		c75,155,256,306,418,350C2018,2782,2148,2784,2265,2754z"/>
	<path class="st0" d="M35,2140c-23-26-23-74,0-100c18-19,30-20,422-20c390,0,404,1,423,20c11,11,20,33,20,50s-9,39-20,50
		c-19,19-33,20-423,20C65,2160,53,2159,35,2140z"/>
	<path class="st0" d="M3300,2140c-11-11-20-33-20-50s9-39,20-50c19-19,33-20,424-20h405l20,26c26,34,26,54,0,88l-20,26h-405
		C3333,2160,3319,2159,3300,2140z"/>
	<path class="st0" d="M892,987C641,736,610,701,610,673c0-22,8-38,26-52c55-44,58-42,361,262c247,247,283,286,283,313
		c0,39-36,74-76,74C1179,1270,1134,1229,892,987z"/>
	<path class="st0" d="M2956,1239c-20-15-26-29-26-57c0-35,15-52,278-315c276-276,279-278,317-275c46,4,81,43,72,80
		c-9,34-568,588-594,588C2992,1260,2971,1251,2956,1239z"/>
	<path class="st0" d="M2040,880c-19-19-20-33-20-424V51l26-20c34-26,54-26,88,0l26,20v405c0,391-1,405-20,424c-11,11-33,20-50,20
		S2051,891,2040,880z"/>
</g>
</svg>
