<?xml version="1.0" standalone="no"?>
<!DOCTYPE svg PUBLIC "-//W3C//DTD SVG 20010904//EN"
 "http://www.w3.org/TR/2001/REC-SVG-20010904/DTD/svg10.dtd">
<svg version="1.0" xmlns="http://www.w3.org/2000/svg"
 width="417.000000pt" height="418.000000pt" viewBox="0 0 417.000000 418.000000"
 preserveAspectRatio="xMidYMid meet">

<g transform="translate(0.000000,418.000000) scale(0.100000,-0.100000)"
fill="#000000" stroke="none">
<path d="M2046 4149 l-26 -20 0 -405 c0 -391 1 -405 20 -424 11 -11 33 -20 50
-20 17 0 39 9 50 20 19 19 20 33 20 424 l0 405 -26 20 c-15 12 -34 21 -44 21
-10 0 -29 -9 -44 -21z"/>
<path d="M620 3570 c-12 -12 -20 -33 -20 -52 0 -29 29 -62 283 -315 307 -307
311 -310 362 -258 52 51 49 55 -258 362 -253 254 -286 283 -315 283 -19 0 -40
-8 -52 -20z"/>
<path d="M3455 3561 c-16 -10 -148 -138 -292 -283 -229 -230 -263 -269 -263
-295 0 -44 30 -76 69 -76 30 0 61 28 317 284 301 302 307 310 267 357 -26 31
-63 36 -98 13z"/>
<path d="M1915 2943 c-420 -90 -714 -468 -692 -893 10 -192 73 -358 190 -504
157 -195 381 -310 629 -323 279 -15 536 95 711 303 435 516 148 1306 -517
1423 -83 15 -238 12 -321 -6z m350 -189 c188 -48 360 -190 444 -367 47 -99 65
-180 65 -297 0 -117 -18 -198 -65 -297 -85 -179 -253 -317 -449 -369 -87 -23
-253 -23 -340 0 -182 49 -359 193 -438 356 -57 117 -73 185 -73 310 0 125 16
193 73 310 75 155 256 306 418 350 118 32 248 34 365 4z"/>
<path d="M35 2140 c-23 -26 -23 -74 0 -100 18 -19 30 -20 422 -20 390 0 404 1
423 20 11 11 20 33 20 50 0 17 -9 39 -20 50 -19 19 -33 20 -423 20 -392 0
-404 -1 -422 -20z"/>
<path d="M3300 2140 c-11 -11 -20 -33 -20 -50 0 -17 9 -39 20 -50 19 -19 33
-20 424 -20 l405 0 20 26 c26 34 26 54 0 88 l-20 26 -405 0 c-391 0 -405 -1
-424 -20z"/>
<path d="M892 987 c-251 -251 -282 -286 -282 -314 0 -22 8 -38 26 -52 55 -44
58 -42 361 262 247 247 283 286 283 313 0 39 -36 74 -76 74 -25 0 -70 -41
-312 -283z"/>
<path d="M2956 1239 c-20 -15 -26 -29 -26 -57 0 -35 15 -52 278 -315 276 -276
279 -278 317 -275 46 4 81 43 72 80 -9 34 -568 588 -594 588 -11 0 -32 -9 -47
-21z"/>
<path d="M2040 880 c-19 -19 -20 -33 -20 -424 l0 -405 26 -20 c34 -26 54 -26
88 0 l26 20 0 405 c0 391 -1 405 -20 424 -11 11 -33 20 -50 20 -17 0 -39 -9
-50 -20z"/>
</g>
</svg>
